<?xml version="1.0" encoding="UTF-8" standalone="no"?>
<svg
   version="1.0"
   width="386.000000pt"
   height="205.000000pt"
   viewBox="0 0 386.000000 205.000000"
   preserveAspectRatio="xMidYMid meet"
   id="svg22"
   sodipodi:docname="SHOPER-removebg-preview.svg"
   inkscape:version="1.1.1 (3bf5ae0d25, 2021-09-20)"
   inkscape:export-filename="C:\Users\josem\Downloads\SHOPER-removebg-preview.png"
   inkscape:export-xdpi="96"
   inkscape:export-ydpi="96"
   xmlns:inkscape="http://www.inkscape.org/namespaces/inkscape"
   xmlns:sodipodi="http://sodipodi.sourceforge.net/DTD/sodipodi-0.dtd"
   xmlns="http://www.w3.org/2000/svg"
   xmlns:svg="http://www.w3.org/2000/svg">
  <defs
     id="defs26" />
  <sodipodi:namedview
     id="namedview24"
     pagecolor="#505050"
     bordercolor="#eeeeee"
     borderopacity="1"
     inkscape:pageshadow="0"
     inkscape:pageopacity="0"
     inkscape:pagecheckerboard="0"
     inkscape:document-units="pt"
     showgrid="false"
     inkscape:zoom="1.2765544"
     inkscape:cx="251.06646"
     inkscape:cy="147.66312"
     inkscape:window-width="1920"
     inkscape:window-height="991"
     inkscape:window-x="-9"
     inkscape:window-y="-9"
     inkscape:window-maximized="1"
     inkscape:current-layer="svg22" />
  <g
     id="g855"
     style="fill:#00686b;fill-opacity:1">
    <path
       d="m 183.8,9.4 c -11.1,4 -19.3,17.3 -12.3,20 1.8,0.7 5.5,-0.9 5.5,-2.4 0,-1.6 5.2,-7 8.2,-8.6 3.8,-2 11.7,-2 15.6,0 4.6,2.4 9,8.4 9.8,13.2 2,13.5 -11.2,23.9 -24.3,19.2 -4.2,-1.5 -6.7,-0.3 -7.1,3.6 -0.3,2.2 0.2,2.9 3.3,4.1 16.3,6.9 34.1,-3.3 37,-21.2 1.5,-9.6 -4.9,-21.6 -14.4,-26.5 -6,-3.2 -14.7,-3.7 -21.3,-1.4 z"
       id="path2"
       style="fill:#00686b;stroke:none;stroke-width:0.1;fill-opacity:1" />
    <path
       d="M 180,71.5 V 79 h 13 13 V 71.5 64 h -13 -13 z"
       id="path4"
       style="fill:#00686b;stroke:none;stroke-width:0.1;fill-opacity:1" />
    <path
       d="m 159,91 c -9.6,2.6 -33.2,9.1 -52.5,14.5 C 33,125.8 24.3,128.2 17,130.1 3.7,133.6 5,131.2 5,152.4 v 18.5 l 10.3,0.3 c 8.3,0.2 10.2,0.6 10.2,1.8 0,1.2 -1.8,1.6 -9.5,1.8 -9.3,0.3 -11.4,1.1 -10.3,3.9 0.4,1 3.5,1.3 13.4,1.3 11.9,0 13,-0.2 14.9,-2.2 2.6,-2.8 2.6,-5.8 -0.1,-9.2 -1.8,-2.3 -2.8,-2.6 -8,-2.6 h -6 l 0.3,-10.7 0.3,-10.8 64.5,-17.7 c 35.5,-9.8 71.8,-19.8 80.8,-22.3 14.7,-4.1 17.3,-4.5 27.2,-4.5 9,0 12.9,0.5 21.7,2.9 11.6,3.2 62.1,17.1 117.1,32.2 l 34.2,9.4 v 10.7 10.8 h -5.5 c -4.6,0 -6,0.4 -8,2.5 -3,3 -3.1,5.4 -0.4,8.9 2,2.6 2.2,2.6 14.9,2.6 7.1,0 13.1,-0.4 13.4,-0.9 0.4,-0.5 0.3,-1.6 0,-2.5 -0.5,-1.2 -2.6,-1.6 -10.2,-1.8 -7.8,-0.2 -9.7,-0.6 -9.7,-1.8 0,-1.2 1.9,-1.6 10.3,-1.8 l 10.2,-0.3 v -18.8 -18.7 l -20.7,-5.7 C 328.7,119 292.3,109 263.5,101 202.8,84.2 211.2,86 192.8,86.1 176.5,86.2 176.5,86.2 159,91 Z"
       id="path6"
       style="fill:#00686b;stroke:none;stroke-width:0.1;fill-opacity:1" />
  </g>
  <path
     d="m 69.3,151.9 c -6.6,3.1 -9.2,10.5 -5.9,17 2,3.8 5.3,5.7 13.2,7.7 9.9,2.5 13,6.8 8.4,11.4 -3.5,3.5 -12,2.3 -17.1,-2.6 l -2.5,-2.4 -2.3,3 c -2.3,3.2 -2.1,4.5 1.3,7 5.6,4.2 18,5.3 24.3,2.3 4.8,-2.2 7.7,-8.7 6.8,-14.6 -1.1,-6.1 -4.9,-9.2 -14.2,-11.3 -7,-1.5 -11.3,-4 -11.3,-6.4 0,-0.6 1.1,-2.2 2.5,-3.5 3,-3.1 7.6,-3.3 13,-0.5 l 4,2.1 2.2,-2.8 c 2.6,-3.2 2.3,-4 -3.1,-6.4 -5.4,-2.4 -13.9,-2.4 -19.3,0 z"
     id="path8"
     style="fill:#00686b;stroke:none;stroke-width:0.1;fill-opacity:1" />
  <path
     d="M 105,173.7 V 197 h 4.5 4.5 v -11 -11.1 l 10.3,0.3 10.2,0.3 0.3,10.7 0.3,10.8 h 4.5 4.4 l -0.2,-23.1 -0.3,-23.2 -4.3,-0.1 -4.2,-0.1 v 8.7 8.8 h -10.5 -10.4 l -0.3,-8.6 -0.3,-8.7 -4.3,-0.1 -4.2,-0.1 z"
     id="path10"
     style="fill:#101010;stroke:none;stroke-width:0.1;fill-opacity:1" />
  <path
     d="m 167.9,151 c -7.9,2.4 -12.7,9.3 -13.6,19.7 -0.9,11.7 2.7,20 10.7,24.1 3.8,2 5.7,2.3 12.2,2 6.8,-0.3 8.1,-0.7 11.5,-3.4 5.1,-4 7.5,-9.2 8.1,-17.3 1.1,-16.1 -7,-26.2 -20.8,-26 -3,0 -6.7,0.4 -8.1,0.9 z m 14.8,8.5 c 3.4,2.2 5.3,7.3 5.3,14 0,10.8 -4.1,16 -12.5,16 -6.4,0 -9.9,-2.7 -11.6,-8.9 -1.4,-5.2 -0.6,-14.9 1.6,-18.2 3.4,-5.2 11.5,-6.6 17.2,-2.9 z"
     id="path12"
     style="fill:#101010;stroke:none;stroke-width:0.1;fill-opacity:1" />
  <path
     d="m 207.4,150.9 c -0.2,0.2 -0.4,10.7 -0.4,23.3 V 197 h 4.5 4.5 v -9 -9 h 7.1 c 11.3,0 15.7,-3.1 17.4,-12.2 0.8,-4.5 -2.2,-12 -5.7,-14 -2.1,-1.2 -26.4,-2.9 -27.4,-1.9 z m 20.6,7.4 c 4.7,2.3 5.3,10.4 0.9,12.7 -1.1,0.6 -4.3,1.2 -7.2,1.3 l -5.2,0.1 -0.3,-7.7 -0.3,-7.7 h 4.8 c 2.6,0 5.9,0.6 7.3,1.3 z"
     id="path14"
     style="fill:#101010;stroke:none;stroke-width:0.1;fill-opacity:1" />
  <path
     d="m 264.8,150.8 -14.8,0.3 v 22.9 23 h 15.5 15.5 v -3.8 -3.7 h -10.7 -10.8 l -0.3,-6.8 -0.3,-6.7 h 9.6 9.5 v -3.5 -3.5 h -9.5 -9.5 v -5.5 -5.5 h 11 11 v -3.4 c 0,-1.9 -0.3,-3.6 -0.7,-3.8 -0.5,-0.2 -7.4,-0.2 -15.5,0 z"
     id="path16"
     style="fill:#101010;stroke:none;stroke-width:0.1;fill-opacity:1" />
  <path
     d="m 290.4,150.9 c -0.2,0.2 -0.4,10.7 -0.4,23.3 V 197 h 4.5 4.5 v -10.1 -10.2 l 4.5,0.5 c 2.5,0.3 5.2,1.1 6,1.8 0.8,0.7 2.7,5 4.1,9.6 l 2.6,8.4 h 4.5 c 3.2,0 4.4,-0.4 4.1,-1.3 -0.3,-0.6 -1.7,-4.9 -3.2,-9.3 -1.5,-4.5 -3.6,-9 -4.6,-9.9 -2.3,-2.1 -2.6,-3.5 -0.6,-3.5 0.8,0 2.6,-1.4 4.1,-3.2 2.4,-2.8 2.7,-3.9 2.2,-8.1 -0.3,-3.5 -1.1,-5.6 -3.1,-7.5 -2.5,-2.6 -3.2,-2.7 -15.7,-3.2 -7.2,-0.3 -13.3,-0.3 -13.5,-0.1 z m 22.3,8.4 c 2,1.9 2.1,7 0.3,9.1 -0.9,1.2 -3.1,1.6 -7.6,1.6 H 299 v -6.6 -6.6 l 6,0.4 c 3.8,0.3 6.7,1 7.7,2.1 z"
     id="path18"
     style="fill:#101010;stroke:none;stroke-width:0.1;fill-opacity:1" />
</svg>
